<?xml version="1.0" encoding="us-ascii" standalone="no"?><svg xmlns="http://www.w3.org/2000/svg" xmlns:xlink="http://www.w3.org/1999/xlink" contentStyleType="text/css" height="257px" preserveAspectRatio="none" style="width:515px;height:257px;background:#FFFFFF;" version="1.1" viewBox="0 0 515 257" width="515px" zoomAndPan="magnify"><defs/><g><line style="stroke:#333333;stroke-width:0.5;" x1="10" x2="10" y1="10" y2="245.5"/><line style="stroke:#333333;stroke-width:0.5;" x1="498" x2="498" y1="10" y2="245.5"/><line style="stroke:#333333;stroke-width:0.5;stroke-dasharray:3.0,5.0;" x1="43" x2="43" y1="10" y2="245.5"/><line style="stroke:#333333;stroke-width:0.5;stroke-dasharray:3.0,5.0;" x1="93" x2="93" y1="10" y2="245.5"/><line style="stroke:#333333;stroke-width:0.5;stroke-dasharray:3.0,5.0;" x1="143" x2="143" y1="10" y2="245.5"/><line style="stroke:#333333;stroke-width:0.5;stroke-dasharray:3.0,5.0;" x1="193" x2="193" y1="10" y2="245.5"/><line style="stroke:#333333;stroke-width:0.5;stroke-dasharray:3.0,5.0;" x1="243" x2="243" y1="10" y2="245.5"/><line style="stroke:#333333;stroke-width:0.5;stroke-dasharray:3.0,5.0;" x1="293" x2="293" y1="10" y2="245.5"/><line style="stroke:#333333;stroke-width:0.5;stroke-dasharray:3.0,5.0;" x1="343" x2="343" y1="10" y2="245.5"/><line style="stroke:#333333;stroke-width:0.5;stroke-dasharray:3.0,5.0;" x1="393" x2="393" y1="10" y2="245.5"/><line style="stroke:#333333;stroke-width:0.5;stroke-dasharray:3.0,5.0;" x1="443" x2="443" y1="10" y2="245.5"/><line style="stroke:#333333;stroke-width:0.5;stroke-dasharray:3.0,5.0;" x1="493" x2="493" y1="10" y2="245.5"/><line style="stroke:#333333;stroke-width:0.5;" x1="10" x2="498" y1="10" y2="10"/><text fill="#333333" font-family="sans-serif" font-size="14" font-weight="bold" lengthAdjust="spacing" textLength="19" x="15" y="24.5332">RS</text><line style="stroke:#333333;stroke-width:0.5;" x1="10" x2="35" y1="28.6094" y2="28.6094"/><line style="stroke:#333333;stroke-width:0.5;" x1="35" x2="45" y1="28.6094" y2="10"/><polygon fill="#E2E2F0" points="16,33.6094,81,33.6094,93,45.6094,81,57.6094,16,57.6094" style="stroke:#E2E2F0;stroke-width:1.5;"/><path d="M16,33.6094 L81,33.6094 L93,45.6094 L81,57.6094 L16,57.6094 " fill="#E2E2F0" style="stroke:#006400;stroke-width:1.5;"/><text fill="#333333" font-family="sans-serif" font-size="12" font-weight="bold" lengthAdjust="spacing" textLength="3" x="28" y="50.5195">&#160;</text><polygon fill="#E2E2F0" points="105,33.6094,331,33.6094,343,45.6094,331,57.6094,105,57.6094,93,45.6094" style="stroke:#006400;stroke-width:1.5;"/><polygon fill="#E2E2F0" points="355,33.6094,381,33.6094,393,45.6094,381,57.6094,355,57.6094,343,45.6094" style="stroke:#006400;stroke-width:1.5;"/><polygon fill="#E2E2F0" points="405,33.6094,493,33.6094,493,57.6094,405,57.6094,393,45.6094" style="stroke:#E2E2F0;stroke-width:1.5;"/><path d="M493,33.6094 L405,33.6094 L393,45.6094 L405,57.6094 L493,57.6094 " fill="#E2E2F0" style="stroke:#006400;stroke-width:1.5;"/><text fill="#333333" font-family="sans-serif" font-size="12" font-weight="bold" lengthAdjust="spacing" textLength="91" x="172.5" y="50.5195">Instruction/Data</text><text fill="#333333" font-family="sans-serif" font-size="12" font-weight="bold" lengthAdjust="spacing" textLength="3" x="366.5" y="50.5195">&#160;</text><text fill="#333333" font-family="sans-serif" font-size="12" font-weight="bold" lengthAdjust="spacing" textLength="3" x="405" y="50.5195">&#160;</text><line style="stroke:#333333;stroke-width:0.5;" x1="10" x2="498" y1="67.6094" y2="67.6094"/><text fill="#333333" font-family="sans-serif" font-size="14" font-weight="bold" lengthAdjust="spacing" textLength="23" x="15" y="98.3848">RW</text><line style="stroke:#006400;stroke-width:2.0;" x1="43" x2="43" y1="95.7031" y2="95.7031"/><line style="stroke:#006400;stroke-width:2.0;" x1="43" x2="93" y1="95.7031" y2="95.7031"/><line style="stroke:#006400;stroke-width:2.0;" x1="93" x2="93" y1="95.7031" y2="109.7031"/><line style="stroke:#006400;stroke-width:2.0;" x1="93" x2="343" y1="109.7031" y2="109.7031"/><line style="stroke:#006400;stroke-width:2.0;" x1="343" x2="343" y1="95.7031" y2="109.7031"/><line style="stroke:#006400;stroke-width:2.0;" x1="343" x2="393" y1="95.7031" y2="95.7031"/><line style="stroke:#006400;stroke-width:2.0;" x1="393" x2="393" y1="95.7031" y2="109.7031"/><line style="stroke:#006400;stroke-width:2.0;" x1="393" x2="493" y1="109.7031" y2="109.7031"/><line style="stroke:#8B0000;stroke-width:1.5;" x1="295.5" x2="340.5" y1="87.7031" y2="87.7031"/><polygon fill="#8B0000" points="303.5,91.7031,303.5,83.7031,295.5,87.7031" style="stroke:#8B0000;stroke-width:2.0;"/><polygon fill="#8B0000" points="332.5,91.7031,332.5,83.7031,340.5,87.7031" style="stroke:#8B0000;stroke-width:2.0;"/><text fill="#8B0000" font-family="sans-serif" font-size="12" lengthAdjust="spacing" textLength="30" x="303" y="80.0664">10 ns</text><line style="stroke:#333333;stroke-width:0.5;" x1="10" x2="498" y1="117.7031" y2="117.7031"/><text fill="#333333" font-family="sans-serif" font-size="14" font-weight="bold" lengthAdjust="spacing" textLength="19" x="15" y="148.4785">EN</text><line style="stroke:#006400;stroke-width:2.0;" x1="43" x2="43" y1="159.7969" y2="159.7969"/><line style="stroke:#006400;stroke-width:2.0;" x1="43" x2="143" y1="159.7969" y2="159.7969"/><line style="stroke:#006400;stroke-width:2.0;" x1="143" x2="143" y1="145.7969" y2="159.7969"/><line style="stroke:#006400;stroke-width:2.0;" x1="143" x2="293" y1="145.7969" y2="145.7969"/><line style="stroke:#006400;stroke-width:2.0;" x1="293" x2="293" y1="145.7969" y2="159.7969"/><line style="stroke:#006400;stroke-width:2.0;" x1="293" x2="443" y1="159.7969" y2="159.7969"/><line style="stroke:#006400;stroke-width:2.0;" x1="443" x2="443" y1="145.7969" y2="159.7969"/><line style="stroke:#006400;stroke-width:2.0;" x1="443" x2="493" y1="145.7969" y2="145.7969"/><line style="stroke:#8B0000;stroke-width:1.5;" x1="95.5" x2="140.5" y1="137.7969" y2="137.7969"/><polygon fill="#8B0000" points="103.5,141.7969,103.5,133.7969,95.5,137.7969" style="stroke:#8B0000;stroke-width:2.0;"/><polygon fill="#8B0000" points="132.5,141.7969,132.5,133.7969,140.5,137.7969" style="stroke:#8B0000;stroke-width:2.0;"/><text fill="#8B0000" font-family="sans-serif" font-size="12" lengthAdjust="spacing" textLength="30" x="103" y="130.1602">40 ns</text><line style="stroke:#8B0000;stroke-width:1.5;" x1="145.5" x2="290.5" y1="137.7969" y2="137.7969"/><polygon fill="#8B0000" points="153.5,141.7969,153.5,133.7969,145.5,137.7969" style="stroke:#8B0000;stroke-width:2.0;"/><polygon fill="#8B0000" points="282.5,141.7969,282.5,133.7969,290.5,137.7969" style="stroke:#8B0000;stroke-width:2.0;"/><text fill="#8B0000" font-family="sans-serif" font-size="12" lengthAdjust="spacing" textLength="37" x="199.5" y="130.1602">230 ns</text><line style="stroke:#8B0000;stroke-width:1.5;" x1="295.5" x2="440.5" y1="137.7969" y2="137.7969"/><polygon fill="#8B0000" points="303.5,141.7969,303.5,133.7969,295.5,137.7969" style="stroke:#8B0000;stroke-width:2.0;"/><polygon fill="#8B0000" points="432.5,141.7969,432.5,133.7969,440.5,137.7969" style="stroke:#8B0000;stroke-width:2.0;"/><text fill="#8B0000" font-family="sans-serif" font-size="12" lengthAdjust="spacing" textLength="37" x="349.5" y="130.1602">220 ns</text><line style="stroke:#333333;stroke-width:0.5;" x1="10" x2="498" y1="167.7969" y2="167.7969"/><text fill="#333333" font-family="sans-serif" font-size="14" font-weight="bold" lengthAdjust="spacing" textLength="78" x="15" y="182.3301">DB0 to DB7</text><line style="stroke:#333333;stroke-width:0.5;" x1="10" x2="94" y1="186.4063" y2="186.4063"/><line style="stroke:#333333;stroke-width:0.5;" x1="94" x2="104" y1="186.4063" y2="167.7969"/><polygon fill="#E2E2F0" points="16,211.5,181,211.5,193,223.5,181,235.5,16,235.5" style="stroke:#E2E2F0;stroke-width:1.5;"/><path d="M16,211.5 L181,211.5 L193,223.5 L181,235.5 L16,235.5 " fill="#E2E2F0" style="stroke:#006400;stroke-width:1.5;"/><text fill="#333333" font-family="sans-serif" font-size="12" font-weight="bold" lengthAdjust="spacing" textLength="3" x="28" y="228.4102">&#160;</text><polygon fill="#E2E2F0" points="205,211.5,331,211.5,343,223.5,331,235.5,205,235.5,193,223.5" style="stroke:#006400;stroke-width:1.5;"/><polygon fill="#E2E2F0" points="355,211.5,493,211.5,493,235.5,355,235.5,343,223.5" style="stroke:#E2E2F0;stroke-width:1.5;"/><path d="M493,211.5 L355,211.5 L343,223.5 L355,235.5 L493,235.5 " fill="#E2E2F0" style="stroke:#006400;stroke-width:1.5;"/><text fill="#333333" font-family="sans-serif" font-size="12" font-weight="bold" lengthAdjust="spacing" textLength="55" x="240.5" y="228.4102">valid data</text><text fill="#333333" font-family="sans-serif" font-size="12" font-weight="bold" lengthAdjust="spacing" textLength="3" x="355" y="228.4102">&#160;</text><line style="stroke:#8B0000;stroke-width:1.5;" x1="144" x2="192" y1="201.4531" y2="201.4531"/><polygon fill="#8B0000" points="152,205.4531,152,197.4531,144,201.4531" style="stroke:#8B0000;stroke-width:1.0;"/><polygon fill="#8B0000" points="184,205.4531,184,197.4531,192,201.4531" style="stroke:#8B0000;stroke-width:1.0;"/><text fill="#8B0000" font-family="sans-serif" font-size="12" lengthAdjust="spacing" textLength="30" x="153" y="193.8164">80 ns</text><line style="stroke:#8B0000;stroke-width:1.5;" x1="294" x2="342" y1="201.4531" y2="201.4531"/><polygon fill="#8B0000" points="302,205.4531,302,197.4531,294,201.4531" style="stroke:#8B0000;stroke-width:1.0;"/><polygon fill="#8B0000" points="334,205.4531,334,197.4531,342,201.4531" style="stroke:#8B0000;stroke-width:1.0;"/><text fill="#8B0000" font-family="sans-serif" font-size="12" lengthAdjust="spacing" textLength="30" x="303" y="193.8164">10 ns</text><!--SRC=[RT0z3u8m40RWlR_Ymcx48agCCGqfWui33CmLY5o29Q7rwzzRMa0qRitJU- -khR6iGEErMeWdAbAqia1LWPTc7WW5QKREA4NtCf8xoIT9JbQIJuh7FkWMUBorDpmcQGQemFD8clU76YyruV5Wp9zpqf-Qza7OQemTfTBThT3OoYKNMenjR1Lr2PjbmTZrBXeieRJ5B9mrtNpc_bkARN_PfgBv4FDs5i9-SG2sWHsiV92AiCGix90QN3kaJa8ZD70q9AEUg2FpGMDbO3ZwAfn6l040]--></g></svg>