<?xml version="1.0" encoding="us-ascii" standalone="no"?><svg xmlns="http://www.w3.org/2000/svg" xmlns:xlink="http://www.w3.org/1999/xlink" contentStyleType="text/css" height="216px" preserveAspectRatio="none" style="width:1365px;height:216px;background:#FFFFFF;" version="1.1" viewBox="0 0 1365 216" width="1365px" zoomAndPan="magnify"><defs/><g><line style="stroke:#333333;stroke-width:0.5;" x1="10" x2="10" y1="10" y2="185.2188"/><line style="stroke:#333333;stroke-width:0.5;" x1="1348" x2="1348" y1="10" y2="185.2188"/><line style="stroke:#333333;stroke-width:0.5;stroke-dasharray:3.0,5.0;" x1="43" x2="43" y1="10" y2="185.2188"/><line style="stroke:#333333;stroke-width:0.5;stroke-dasharray:3.0,5.0;" x1="93" x2="93" y1="10" y2="185.2188"/><line style="stroke:#333333;stroke-width:0.5;stroke-dasharray:3.0,5.0;" x1="143" x2="143" y1="10" y2="185.2188"/><line style="stroke:#333333;stroke-width:0.5;stroke-dasharray:3.0,5.0;" x1="193" x2="193" y1="10" y2="185.2188"/><line style="stroke:#333333;stroke-width:0.5;stroke-dasharray:3.0,5.0;" x1="243" x2="243" y1="10" y2="185.2188"/><line style="stroke:#333333;stroke-width:0.5;stroke-dasharray:3.0,5.0;" x1="293" x2="293" y1="10" y2="185.2188"/><line style="stroke:#333333;stroke-width:0.5;stroke-dasharray:3.0,5.0;" x1="343" x2="343" y1="10" y2="185.2188"/><line style="stroke:#333333;stroke-width:0.5;stroke-dasharray:3.0,5.0;" x1="393" x2="393" y1="10" y2="185.2188"/><line style="stroke:#333333;stroke-width:0.5;stroke-dasharray:3.0,5.0;" x1="443" x2="443" y1="10" y2="185.2188"/><line style="stroke:#333333;stroke-width:0.5;stroke-dasharray:3.0,5.0;" x1="493" x2="493" y1="10" y2="185.2188"/><line style="stroke:#333333;stroke-width:0.5;stroke-dasharray:3.0,5.0;" x1="543" x2="543" y1="10" y2="185.2188"/><line style="stroke:#333333;stroke-width:0.5;stroke-dasharray:3.0,5.0;" x1="593" x2="593" y1="10" y2="185.2188"/><line style="stroke:#333333;stroke-width:0.5;stroke-dasharray:3.0,5.0;" x1="643" x2="643" y1="10" y2="185.2188"/><line style="stroke:#333333;stroke-width:0.5;stroke-dasharray:3.0,5.0;" x1="693" x2="693" y1="10" y2="185.2188"/><line style="stroke:#333333;stroke-width:0.5;stroke-dasharray:3.0,5.0;" x1="743" x2="743" y1="10" y2="185.2188"/><line style="stroke:#333333;stroke-width:0.5;stroke-dasharray:3.0,5.0;" x1="793" x2="793" y1="10" y2="185.2188"/><line style="stroke:#333333;stroke-width:0.5;stroke-dasharray:3.0,5.0;" x1="843" x2="843" y1="10" y2="185.2188"/><line style="stroke:#333333;stroke-width:0.5;stroke-dasharray:3.0,5.0;" x1="893" x2="893" y1="10" y2="185.2188"/><line style="stroke:#333333;stroke-width:0.5;stroke-dasharray:3.0,5.0;" x1="943" x2="943" y1="10" y2="185.2188"/><line style="stroke:#333333;stroke-width:0.5;stroke-dasharray:3.0,5.0;" x1="993" x2="993" y1="10" y2="185.2188"/><line style="stroke:#333333;stroke-width:0.5;stroke-dasharray:3.0,5.0;" x1="1043" x2="1043" y1="10" y2="185.2188"/><line style="stroke:#333333;stroke-width:0.5;stroke-dasharray:3.0,5.0;" x1="1093" x2="1093" y1="10" y2="185.2188"/><line style="stroke:#333333;stroke-width:0.5;stroke-dasharray:3.0,5.0;" x1="1143" x2="1143" y1="10" y2="185.2188"/><line style="stroke:#333333;stroke-width:0.5;stroke-dasharray:3.0,5.0;" x1="1193" x2="1193" y1="10" y2="185.2188"/><line style="stroke:#333333;stroke-width:0.5;stroke-dasharray:3.0,5.0;" x1="1243" x2="1243" y1="10" y2="185.2188"/><line style="stroke:#333333;stroke-width:0.5;stroke-dasharray:3.0,5.0;" x1="1293" x2="1293" y1="10" y2="185.2188"/><line style="stroke:#333333;stroke-width:0.5;stroke-dasharray:3.0,5.0;" x1="1343" x2="1343" y1="10" y2="185.2188"/><line style="stroke:#333333;stroke-width:0.5;" x1="10" x2="1348" y1="10" y2="10"/><text fill="#333333" font-family="sans-serif" font-size="14" font-weight="bold" lengthAdjust="spacing" textLength="19" x="15" y="24.5332">RS</text><line style="stroke:#333333;stroke-width:0.5;" x1="10" x2="35" y1="28.6094" y2="28.6094"/><line style="stroke:#333333;stroke-width:0.5;" x1="35" x2="45" y1="28.6094" y2="10"/><polygon fill="#E2E2F0" points="55,33.6094,81,33.6094,93,45.6094,81,57.6094,55,57.6094,43,45.6094" style="stroke:#006400;stroke-width:1.5;"/><polygon fill="#E2E2F0" points="105,33.6094,1081,33.6094,1093,45.6094,1081,57.6094,105,57.6094,93,45.6094" style="stroke:#006400;stroke-width:1.5;"/><polygon fill="#E2E2F0" points="1105,33.6094,1343,33.6094,1343,57.6094,1105,57.6094,1093,45.6094" style="stroke:#E2E2F0;stroke-width:1.5;"/><path d="M1343,33.6094 L1105,33.6094 L1093,45.6094 L1105,57.6094 L1343,57.6094 " fill="#E2E2F0" style="stroke:#006400;stroke-width:1.5;"/><text fill="#333333" font-family="sans-serif" font-size="12" font-weight="bold" lengthAdjust="spacing" textLength="3" x="66.5" y="50.5195">&#160;</text><text fill="#333333" font-family="sans-serif" font-size="12" font-weight="bold" lengthAdjust="spacing" textLength="56" x="565" y="50.5195">Operation</text><text fill="#333333" font-family="sans-serif" font-size="12" font-weight="bold" lengthAdjust="spacing" textLength="3" x="1105" y="50.5195">&#160;</text><line style="stroke:#333333;stroke-width:0.5;" x1="10" x2="1348" y1="67.6094" y2="67.6094"/><text fill="#333333" font-family="sans-serif" font-size="14" font-weight="bold" lengthAdjust="spacing" textLength="23" x="15" y="88.3379">RW</text><line style="stroke:#006400;stroke-width:2.0;" x1="43" x2="43" y1="89.6094" y2="89.6094"/><line style="stroke:#006400;stroke-width:2.0;" x1="43" x2="43" y1="75.6094" y2="89.6094"/><line style="stroke:#006400;stroke-width:2.0;" x1="43" x2="93" y1="75.6094" y2="75.6094"/><line style="stroke:#006400;stroke-width:2.0;" x1="93" x2="93" y1="75.6094" y2="89.6094"/><line style="stroke:#006400;stroke-width:2.0;" x1="93" x2="1093" y1="89.6094" y2="89.6094"/><line style="stroke:#006400;stroke-width:2.0;" x1="1093" x2="1093" y1="75.6094" y2="89.6094"/><line style="stroke:#006400;stroke-width:2.0;" x1="1093" x2="1343" y1="75.6094" y2="75.6094"/><line style="stroke:#333333;stroke-width:0.5;" x1="10" x2="1348" y1="97.6094" y2="97.6094"/><text fill="#333333" font-family="sans-serif" font-size="14" font-weight="bold" lengthAdjust="spacing" textLength="9" x="15" y="118.3379">E</text><line style="stroke:#006400;stroke-width:2.0;" x1="43" x2="43" y1="119.6094" y2="119.6094"/><line style="stroke:#006400;stroke-width:2.0;" x1="43" x2="293" y1="119.6094" y2="119.6094"/><line style="stroke:#006400;stroke-width:2.0;" x1="293" x2="293" y1="105.6094" y2="119.6094"/><line style="stroke:#006400;stroke-width:2.0;" x1="293" x2="693" y1="105.6094" y2="105.6094"/><line style="stroke:#006400;stroke-width:2.0;" x1="693" x2="693" y1="105.6094" y2="119.6094"/><line style="stroke:#006400;stroke-width:2.0;" x1="693" x2="1293" y1="119.6094" y2="119.6094"/><line style="stroke:#006400;stroke-width:2.0;" x1="1293" x2="1343" y1="119.6094" y2="119.6094"/><line style="stroke:#333333;stroke-width:0.5;" x1="10" x2="1348" y1="127.6094" y2="127.6094"/><text fill="#333333" font-family="sans-serif" font-size="14" font-weight="bold" lengthAdjust="spacing" textLength="78" x="15" y="142.1426">DB0 to DB7</text><line style="stroke:#333333;stroke-width:0.5;" x1="10" x2="94" y1="146.2188" y2="146.2188"/><line style="stroke:#333333;stroke-width:0.5;" x1="94" x2="104" y1="146.2188" y2="127.6094"/><polygon fill="#E2E2F0" points="55,151.2188,381,151.2188,393,163.2188,381,175.2188,55,175.2188,43,163.2188" style="stroke:#006400;stroke-width:1.5;"/><polygon fill="#E2E2F0" points="405,151.2188,1081,151.2188,1093,163.2188,1081,175.2188,405,175.2188,393,163.2188" style="stroke:#006400;stroke-width:1.5;"/><polygon fill="#E2E2F0" points="1105,151.2188,1343,151.2188,1343,175.2188,1105,175.2188,1093,163.2188" style="stroke:#E2E2F0;stroke-width:1.5;"/><path d="M1343,151.2188 L1105,151.2188 L1093,163.2188 L1105,175.2188 L1343,175.2188 " fill="#E2E2F0" style="stroke:#006400;stroke-width:1.5;"/><text fill="#333333" font-family="sans-serif" font-size="12" font-weight="bold" lengthAdjust="spacing" textLength="3" x="216.5" y="168.1289">&#160;</text><text fill="#333333" font-family="sans-serif" font-size="12" font-weight="bold" lengthAdjust="spacing" textLength="55" x="715.5" y="168.1289">valid data</text><text fill="#333333" font-family="sans-serif" font-size="12" font-weight="bold" lengthAdjust="spacing" textLength="3" x="1105" y="168.1289">&#160;</text><line style="stroke:#333333;stroke-width:2.0;" x1="93" x2="93" y1="185.2188" y2="190.2188"/><line style="stroke:#333333;stroke-width:2.0;" x1="143" x2="143" y1="185.2188" y2="190.2188"/><line style="stroke:#333333;stroke-width:2.0;" x1="193" x2="193" y1="185.2188" y2="190.2188"/><line style="stroke:#333333;stroke-width:2.0;" x1="243" x2="243" y1="185.2188" y2="190.2188"/><line style="stroke:#333333;stroke-width:2.0;" x1="293" x2="293" y1="185.2188" y2="190.2188"/><line style="stroke:#333333;stroke-width:2.0;" x1="343" x2="343" y1="185.2188" y2="190.2188"/><line style="stroke:#333333;stroke-width:2.0;" x1="393" x2="393" y1="185.2188" y2="190.2188"/><line style="stroke:#333333;stroke-width:2.0;" x1="443" x2="443" y1="185.2188" y2="190.2188"/><line style="stroke:#333333;stroke-width:2.0;" x1="493" x2="493" y1="185.2188" y2="190.2188"/><line style="stroke:#333333;stroke-width:2.0;" x1="543" x2="543" y1="185.2188" y2="190.2188"/><line style="stroke:#333333;stroke-width:2.0;" x1="593" x2="593" y1="185.2188" y2="190.2188"/><line style="stroke:#333333;stroke-width:2.0;" x1="643" x2="643" y1="185.2188" y2="190.2188"/><line style="stroke:#333333;stroke-width:2.0;" x1="693" x2="693" y1="185.2188" y2="190.2188"/><line style="stroke:#333333;stroke-width:2.0;" x1="743" x2="743" y1="185.2188" y2="190.2188"/><line style="stroke:#333333;stroke-width:2.0;" x1="793" x2="793" y1="185.2188" y2="190.2188"/><line style="stroke:#333333;stroke-width:2.0;" x1="843" x2="843" y1="185.2188" y2="190.2188"/><line style="stroke:#333333;stroke-width:2.0;" x1="893" x2="893" y1="185.2188" y2="190.2188"/><line style="stroke:#333333;stroke-width:2.0;" x1="943" x2="943" y1="185.2188" y2="190.2188"/><line style="stroke:#333333;stroke-width:2.0;" x1="993" x2="993" y1="185.2188" y2="190.2188"/><line style="stroke:#333333;stroke-width:2.0;" x1="1043" x2="1043" y1="185.2188" y2="190.2188"/><line style="stroke:#333333;stroke-width:2.0;" x1="1093" x2="1093" y1="185.2188" y2="190.2188"/><line style="stroke:#333333;stroke-width:2.0;" x1="1143" x2="1143" y1="185.2188" y2="190.2188"/><line style="stroke:#333333;stroke-width:2.0;" x1="1193" x2="1193" y1="185.2188" y2="190.2188"/><line style="stroke:#333333;stroke-width:2.0;" x1="1243" x2="1243" y1="185.2188" y2="190.2188"/><line style="stroke:#333333;stroke-width:2.0;" x1="1293" x2="1293" y1="185.2188" y2="190.2188"/><line style="stroke:#333333;stroke-width:2.0;" x1="1343" x2="1343" y1="185.2188" y2="190.2188"/><line style="stroke:#333333;stroke-width:2.0;" x1="93" x2="1343" y1="185.2188" y2="185.2188"/><text fill="#333333" font-family="sans-serif" font-size="11" lengthAdjust="spacing" textLength="10" x="38" y="202.6377">-1</text><text fill="#333333" font-family="sans-serif" font-size="11" lengthAdjust="spacing" textLength="6" x="90" y="202.6377">0</text><text fill="#333333" font-family="sans-serif" font-size="11" lengthAdjust="spacing" textLength="6" x="290" y="202.6377">4</text><text fill="#333333" font-family="sans-serif" font-size="11" lengthAdjust="spacing" textLength="6" x="390" y="202.6377">6</text><text fill="#333333" font-family="sans-serif" font-size="11" lengthAdjust="spacing" textLength="12" x="687" y="202.6377">12</text><text fill="#333333" font-family="sans-serif" font-size="11" lengthAdjust="spacing" textLength="12" x="1087" y="202.6377">20</text><text fill="#333333" font-family="sans-serif" font-size="11" lengthAdjust="spacing" textLength="12" x="1287" y="202.6377">24</text><!--SRC=[ROun2uCm48Nt-nL7za8CqguX97CX6PolAZKWffXWwR-lnaQNRe_ltlUuDaojZpqownXIHElWuIUQFojfTj8Sn6HWe2sILXnJGArk-Q8Lo4i5rg6Fo1ZOPWk3VmvWjZI6DsZrEqfUYlTNFrFoOIh6rfFrxcHRNektqEWxx2ZHkb29SrSAVcx_-q2A-cX_0G00]--></g></svg>